<?xml version="1.0" encoding="iso-8859-1"?>
<!-- Generator: Adobe Illustrator 19.0.0, SVG Export Plug-In . SVG Version: 6.00 Build 0)  -->
<svg version="1.1" id="Capa_1" xmlns="http://www.w3.org/2000/svg" xmlns:xlink="http://www.w3.org/1999/xlink" x="0px" y="0px"
	 viewBox="0 0 512 512" style="enable-background:new 0 0 512 512;" xml:space="preserve">
<g>
	<g>
		<g>
			<path d="M457.143,100.571c-0.003-5.048-4.095-9.139-9.143-9.143h-36.571c-5.048,0.003-9.139,4.095-9.143,9.143v9.143h54.857
				V100.571z"/>
			<path d="M182.857,73.143c0.013-10.093,8.192-18.273,18.286-18.286h100.571c10.094,0.013,18.273,8.192,18.286,18.286v36.571
				h18.286V73.143c-0.02-20.189-16.382-36.551-36.571-36.571H201.143c-20.19,0.02-36.551,16.382-36.571,36.571v36.571h18.286V73.143
				z"/>
			<rect x="201.143" y="73.143" width="100.571" height="36.571"/>
			<path d="M484.571,128H27.429C12.287,128.017,0.017,140.287,0,155.429V448c0.017,15.142,12.287,27.412,27.429,27.429h457.143
				C499.713,475.412,511.984,463.142,512,448V155.429C511.984,140.287,499.713,128.017,484.571,128z M374.857,329.143
				c-0.013,10.094-8.192,18.273-18.286,18.286h-64v64c-0.013,10.094-8.192,18.273-18.286,18.286h-54.857
				c-10.094-0.013-18.273-8.192-18.286-18.286v-64h-64c-10.094-0.013-18.273-8.192-18.286-18.286v-54.857
				c0.013-10.094,8.192-18.273,18.286-18.286h64v-64c0.013-10.094,8.192-18.273,18.286-18.286h54.857
				c10.094,0.013,18.273,8.192,18.286,18.286v64h64c10.094,0.013,18.273,8.192,18.286,18.286V329.143z"/>
			<path d="M109.714,100.571c-0.003-5.048-4.095-9.139-9.143-9.143H64c-5.048,0.003-9.139,4.095-9.143,9.143v9.143h54.857V100.571z"
				/>
			<path d="M274.286,256v-64h-54.857v64c-0.013,10.094-8.192,18.273-18.286,18.286h-64v54.857h64
				c10.093,0.013,18.273,8.192,18.286,18.286v64h54.857v-64c0.013-10.094,8.192-18.273,18.286-18.286h64v-54.875l-64,0.018
				C282.478,274.273,274.299,266.094,274.286,256z"/>
		</g>
	</g>
</g>
<g>
</g>
<g>
</g>
<g>
</g>
<g>
</g>
<g>
</g>
<g>
</g>
<g>
</g>
<g>
</g>
<g>
</g>
<g>
</g>
<g>
</g>
<g>
</g>
<g>
</g>
<g>
</g>
<g>
</g>
</svg>
