<svg height="512pt" viewBox="0 0 512 512.00747" width="512pt" xmlns="http://www.w3.org/2000/svg"><path d="m499.570312 29.183594-16.75-16.75c-16.566406-16.574219-43.546874-16.582032-60.128906 0l-34.75 34.746094-24.464844-24.464844c-6.453124-6.449219-15.027343-10-24.152343-10-9.121094 0-17.695313 3.558594-24.140625 10l-46.703125 46.703125c-1.605469 1.605469-2.5 3.773437-2.5 6.035156s.894531 4.4375 2.5 6.035156l26.375 26.375-220.8125 220.824219c-13.339844 13.339844-18.785157 32.285156-14.550781 50.671875 3.363281 14.601563-.316407 29.007813-9.847657 38.539063l-40.425781 40.425781c-5.9375 5.9375-9.21484375 13.832031-9.21484375 22.238281 0 8.394531 3.26953175 16.296875 9.21484375 22.230469 5.941406 5.9375 13.835938 9.214843 22.230469 9.214843 8.398437 0 16.300781-3.269531 22.238281-9.214843l40.425781-40.425781c9.53125-9.523438 23.9375-13.203126 38.535157-9.847657 18.410156 4.222657 37.335937-1.210937 50.675781-14.550781l220.816406-220.816406 26.375 26.378906c1.605469 1.605469 3.773437 2.5 6.035156 2.5s4.4375-.894531 6.03125-2.5l46.707031-46.703125c6.449219-6.445313 10-15.019531 10-24.144531 0-9.121094-3.558593-17.695313-10-24.148438l-24.46875-24.464844 34.75-34.75c16.582032-16.582031 16.582032-43.554687 0-60.136718zm-247.976562 275.703125-90.65625 90.644531c-6.320312 6.332031-14.53125 10.078125-23.117188 10.558594-.628906.03125-1.261718.050781-1.882812.050781-8.21875 0-15.753906-3.046875-21.394531-8.6875-6.070313-6.066406-9.140625-14.335937-8.636719-23.28125.476562-8.585937 4.230469-16.792969 10.554688-23.117187l90.644531-90.652344c13.320312-13.328125 34.136719-14.199219 46.40625-1.929688 12.273437 12.28125 11.410156 33.09375-1.917969 46.414063zm230.636719-132.210938c0 4.566407-1.777344 8.851563-5 12.074219l-40.671875 40.671875-20.34375-20.34375 26.375-26.367187c3.339844-3.328126 3.339844-8.730469 0-12.066407-3.335938-3.335937-8.726563-3.335937-12.066406 0l-26.375 26.367188-20.335938-20.335938 26.367188-26.375c3.335937-3.339843 3.335937-8.738281 0-12.066406-3.335938-3.339844-8.730469-3.339844-12.066407 0l-26.367187 26.375-20.34375-20.34375 26.375-26.367187c3.335937-3.328126 3.335937-8.730469 0-12.066407-3.335938-3.339843-8.730469-3.339843-12.066406 0l-26.375 26.367188-20.335938-20.335938 26.367188-26.375c3.335937-3.339843 3.335937-8.742187 0-12.070312-3.335938-3.335938-8.730469-3.335938-12.066407 0l-26.367187 26.378906-20.34375-20.34375 40.667968-40.671875c6.453126-6.449219 17.699219-6.449219 24.160157 0l125.820312 125.820312c3.207031 3.226563 4.992188 7.519532 4.992188 12.074219zm0 0"/><path d="m232.085938 266.855469c-4.449219 0-9.183594 1.910156-12.894532 5.621093l-90.644531 90.652344c-3.363281 3.363282-5.34375 7.621094-5.589844 12.007813-.222656 4.027343 1.074219 7.664062 3.660157 10.257812 2.585937 2.59375 6.230468 3.898438 10.257812 3.660157 4.386719-.246094 8.652344-2.226563 12.007812-5.589844l90.660157-90.644532c6.664062-6.671874 7.535156-16.65625 1.929687-22.261718-2.511718-2.484375-5.855468-3.703125-9.386718-3.703125zm0 0"/></svg>